<?xml version="1.0" encoding="UTF-8" standalone="no"?>
<!DOCTYPE svg PUBLIC "-//W3C//DTD SVG 1.1//EN"
 "http://www.w3.org/Graphics/SVG/1.1/DTD/svg11.dtd">
<!-- Generated by graphviz version 2.38.0 (20140413.2041)
 -->
<!-- Title: stack Pages: 1 -->
<svg width="1017pt" height="101pt"
 viewBox="0.00 0.00 1017.00 101.00" xmlns="http://www.w3.org/2000/svg" xmlns:xlink="http://www.w3.org/1999/xlink">
<g id="graph0" class="graph" transform="scale(1 1) rotate(0) translate(4 97)">
<title>stack</title>
<polygon fill="white" stroke="none" points="-4,4 -4,-97 1013,-97 1013,4 -4,4"/>
<!-- pushv -->
<g id="node1" class="node"><title>pushv</title>
<polygon fill="none" stroke="black" points="0,-28.5 0,-64.5 54,-64.5 54,-28.5 0,-28.5"/>
<text text-anchor="middle" x="27" y="-42.8" font-family="Times New Roman,serif" font-size="14.00">v</text>
</g>
<!-- pushw -->
<g id="node2" class="node"><title>pushw</title>
<polygon fill="none" stroke="black" points="90,-23.5 90,-69.5 144,-69.5 144,-23.5 90,-23.5"/>
<text text-anchor="middle" x="117" y="-54.3" font-family="Times New Roman,serif" font-size="14.00">w</text>
<polyline fill="none" stroke="black" points="90,-46.5 144,-46.5 "/>
<text text-anchor="middle" x="117" y="-31.3" font-family="Times New Roman,serif" font-size="14.00">v</text>
</g>
<!-- pushv&#45;&gt;pushw -->
<g id="edge1" class="edge"><title>pushv&#45;&gt;pushw</title>
<path fill="none" stroke="black" d="M54.4029,-46.5C62.3932,-46.5 71.3106,-46.5 79.8241,-46.5"/>
<polygon fill="black" stroke="black" points="79.919,-50.0001 89.919,-46.5 79.919,-43.0001 79.919,-50.0001"/>
</g>
<!-- pushx -->
<g id="node3" class="node"><title>pushx</title>
<polygon fill="none" stroke="black" points="180,-12 180,-81 234,-81 234,-12 180,-12"/>
<text text-anchor="middle" x="207" y="-65.8" font-family="Times New Roman,serif" font-size="14.00">x</text>
<polyline fill="none" stroke="black" points="180,-58 234,-58 "/>
<text text-anchor="middle" x="207" y="-42.8" font-family="Times New Roman,serif" font-size="14.00">w</text>
<polyline fill="none" stroke="black" points="180,-35 234,-35 "/>
<text text-anchor="middle" x="207" y="-19.8" font-family="Times New Roman,serif" font-size="14.00">v</text>
</g>
<!-- pushw&#45;&gt;pushx -->
<g id="edge2" class="edge"><title>pushw&#45;&gt;pushx</title>
<path fill="none" stroke="black" d="M144.403,-46.5C152.393,-46.5 161.311,-46.5 169.824,-46.5"/>
<polygon fill="black" stroke="black" points="169.919,-50.0001 179.919,-46.5 169.919,-43.0001 169.919,-50.0001"/>
</g>
<!-- pushy -->
<g id="node4" class="node"><title>pushy</title>
<polygon fill="none" stroke="black" points="270,-0.5 270,-92.5 324,-92.5 324,-0.5 270,-0.5"/>
<text text-anchor="middle" x="297" y="-77.3" font-family="Times New Roman,serif" font-size="14.00">y</text>
<polyline fill="none" stroke="black" points="270,-69.5 324,-69.5 "/>
<text text-anchor="middle" x="297" y="-54.3" font-family="Times New Roman,serif" font-size="14.00">x</text>
<polyline fill="none" stroke="black" points="270,-46.5 324,-46.5 "/>
<text text-anchor="middle" x="297" y="-31.3" font-family="Times New Roman,serif" font-size="14.00">w</text>
<polyline fill="none" stroke="black" points="270,-23.5 324,-23.5 "/>
<text text-anchor="middle" x="297" y="-8.3" font-family="Times New Roman,serif" font-size="14.00">v</text>
</g>
<!-- pushx&#45;&gt;pushy -->
<g id="edge3" class="edge"><title>pushx&#45;&gt;pushy</title>
<path fill="none" stroke="black" d="M234.403,-46.5C242.393,-46.5 251.311,-46.5 259.824,-46.5"/>
<polygon fill="black" stroke="black" points="259.919,-50.0001 269.919,-46.5 259.919,-43.0001 259.919,-50.0001"/>
</g>
<!-- mul -->
<g id="node5" class="node"><title>mul</title>
<polygon fill="none" stroke="black" points="360,-12 360,-81 414,-81 414,-12 360,-12"/>
<text text-anchor="middle" x="387" y="-65.8" font-family="Times New Roman,serif" font-size="14.00">x * y</text>
<polyline fill="none" stroke="black" points="360,-58 414,-58 "/>
<text text-anchor="middle" x="387" y="-42.8" font-family="Times New Roman,serif" font-size="14.00">w</text>
<polyline fill="none" stroke="black" points="360,-35 414,-35 "/>
<text text-anchor="middle" x="387" y="-19.8" font-family="Times New Roman,serif" font-size="14.00">v</text>
</g>
<!-- pushy&#45;&gt;mul -->
<g id="edge4" class="edge"><title>pushy&#45;&gt;mul</title>
<path fill="none" stroke="black" d="M324.403,-46.5C332.393,-46.5 341.311,-46.5 349.824,-46.5"/>
<polygon fill="black" stroke="black" points="349.919,-50.0001 359.919,-46.5 349.919,-43.0001 349.919,-50.0001"/>
</g>
<!-- add -->
<g id="node6" class="node"><title>add</title>
<polygon fill="none" stroke="black" points="450,-23.5 450,-69.5 520,-69.5 520,-23.5 450,-23.5"/>
<text text-anchor="middle" x="485" y="-54.3" font-family="Times New Roman,serif" font-size="14.00">x * y + w</text>
<polyline fill="none" stroke="black" points="450,-46.5 520,-46.5 "/>
<text text-anchor="middle" x="485" y="-31.3" font-family="Times New Roman,serif" font-size="14.00">v</text>
</g>
<!-- mul&#45;&gt;add -->
<g id="edge5" class="edge"><title>mul&#45;&gt;add</title>
<path fill="none" stroke="black" d="M414.232,-46.5C422.133,-46.5 431.032,-46.5 439.763,-46.5"/>
<polygon fill="black" stroke="black" points="439.867,-50.0001 449.867,-46.5 439.867,-43.0001 439.867,-50.0001"/>
</g>
<!-- pushz -->
<g id="node7" class="node"><title>pushz</title>
<polygon fill="none" stroke="black" points="556,-12 556,-81 626,-81 626,-12 556,-12"/>
<text text-anchor="middle" x="591" y="-65.8" font-family="Times New Roman,serif" font-size="14.00">z</text>
<polyline fill="none" stroke="black" points="556,-58 626,-58 "/>
<text text-anchor="middle" x="591" y="-42.8" font-family="Times New Roman,serif" font-size="14.00">x * y + w</text>
<polyline fill="none" stroke="black" points="556,-35 626,-35 "/>
<text text-anchor="middle" x="591" y="-19.8" font-family="Times New Roman,serif" font-size="14.00">v</text>
</g>
<!-- add&#45;&gt;pushz -->
<g id="edge6" class="edge"><title>add&#45;&gt;pushz</title>
<path fill="none" stroke="black" d="M520.053,-46.5C528.224,-46.5 537.068,-46.5 545.63,-46.5"/>
<polygon fill="black" stroke="black" points="545.87,-50.0001 555.87,-46.5 545.87,-43.0001 545.87,-50.0001"/>
</g>
<!-- sub -->
<g id="node8" class="node"><title>sub</title>
<polygon fill="none" stroke="black" points="662,-23.5 662,-69.5 759,-69.5 759,-23.5 662,-23.5"/>
<text text-anchor="middle" x="710.5" y="-54.3" font-family="Times New Roman,serif" font-size="14.00">z &#45; (x * y + w)</text>
<polyline fill="none" stroke="black" points="662,-46.5 759,-46.5 "/>
<text text-anchor="middle" x="710.5" y="-31.3" font-family="Times New Roman,serif" font-size="14.00">v</text>
</g>
<!-- pushz&#45;&gt;sub -->
<g id="edge7" class="edge"><title>pushz&#45;&gt;sub</title>
<path fill="none" stroke="black" d="M626.302,-46.5C634.286,-46.5 643.004,-46.5 651.695,-46.5"/>
<polygon fill="black" stroke="black" points="651.838,-50.0001 661.838,-46.5 651.838,-43.0001 651.838,-50.0001"/>
</g>
<!-- div -->
<g id="node9" class="node"><title>div</title>
<polygon fill="none" stroke="black" points="795,-28.5 795,-64.5 919,-64.5 919,-28.5 795,-28.5"/>
<text text-anchor="middle" x="857" y="-42.8" font-family="Times New Roman,serif" font-size="14.00">(z &#45; (x * y + w)) / v</text>
</g>
<!-- sub&#45;&gt;div -->
<g id="edge8" class="edge"><title>sub&#45;&gt;div</title>
<path fill="none" stroke="black" d="M759.215,-46.5C767.428,-46.5 776.121,-46.5 784.794,-46.5"/>
<polygon fill="black" stroke="black" points="784.936,-50.0001 794.936,-46.5 784.936,-43.0001 784.936,-50.0001"/>
</g>
<!-- popu -->
<g id="node10" class="node"><title>popu</title>
<polygon fill="none" stroke="black" points="955,-28.5 955,-64.5 1009,-64.5 1009,-28.5 955,-28.5"/>
<text text-anchor="middle" x="982" y="-42.8" font-family="Times New Roman,serif" font-size="14.00"> </text>
</g>
<!-- div&#45;&gt;popu -->
<g id="edge9" class="edge"><title>div&#45;&gt;popu</title>
<path fill="none" stroke="black" d="M919.14,-46.5C927.859,-46.5 936.589,-46.5 944.627,-46.5"/>
<polygon fill="black" stroke="black" points="944.736,-50.0001 954.736,-46.5 944.736,-43.0001 944.736,-50.0001"/>
</g>
</g>
</svg>
